<svg width="24" height="24" viewBox="0 0 24 24" fill="none" xmlns="http://www.w3.org/2000/svg">
<path fill-rule="evenodd" clip-rule="evenodd" d="M14.3431 4.95708C13.9526 4.56655 13.3195 4.56655 12.9289 4.95708C12.5384 5.3476 12.5384 5.98077 12.9289 6.37129L17.558 10.9992L4.18885 11C3.62296 11 3.16421 11.4587 3.16421 12.0246C3.16421 12.5905 3.62296 13.0493 4.18885 13.0493L17.564 13.0492L12.9289 17.685C12.5684 18.0455 12.5407 18.6127 12.8457 19.005L12.9289 19.0992C13.3195 19.4897 13.9526 19.4897 14.3431 19.0992L20.7071 12.7353C21.0976 12.3447 21.0976 11.7116 20.7071 11.321L14.3431 4.95708Z" fill="#1C1B1F"/>
</svg>
