<svg width="24" height="24" viewBox="0 0 24 24" fill="none" xmlns="http://www.w3.org/2000/svg">
<path fill-rule="evenodd" clip-rule="evenodd" d="M9.82092 4.95708C10.2114 4.56655 10.8446 4.56655 11.2351 4.95708C11.6257 5.3476 11.6257 5.98077 11.2351 6.37129L6.60606 10.9992L19.9752 11C20.5411 11 20.9998 11.4587 20.9998 12.0246C20.9998 12.5905 20.5411 13.0493 19.9752 13.0493L6.60006 13.0492L11.2351 17.685C11.5956 18.0455 11.6233 18.6127 11.3183 19.005L11.2351 19.0992C10.8446 19.4897 10.2114 19.4897 9.82092 19.0992L3.45696 12.7353C3.06643 12.3447 3.06643 11.7116 3.45696 11.321L9.82092 4.95708Z" fill="#1C1B1F"/>
</svg>
