<svg width="240" height="280" viewBox="0 0 240 280" fill="none" xmlns="http://www.w3.org/2000/svg">
<mask id="mask0_3470_71227" style="mask-type:alpha" maskUnits="userSpaceOnUse" x="0" y="0" width="240" height="280">
<rect width="240" height="280" rx="16" fill="#DDE4F8"/>
</mask>
<g mask="url(#mask0_3470_71227)">
<rect width="240" height="280" rx="16" fill="#DDE4F8"/>
<rect x="21.5" y="26.2646" width="249" height="227.937" rx="8.5" fill="white" stroke="#B6C5F0"/>
<path d="M22 34.7646C22 30.3464 25.5817 26.7646 30 26.7646H262C266.418 26.7646 270 30.3464 270 34.7646V41.7605H22V34.7646Z" fill="#F6F7F7"/>
</g>
<circle cx="52" cy="73.6475" r="16" fill="#F6F7F7"/>
<path d="M58.5778 67.8065C58.6365 67.9592 58.6666 68.1213 58.6666 68.2849V78.9446C58.6666 79.681 58.0696 80.2779 57.3333 80.2779C57.1425 80.2779 56.9539 80.237 56.7803 80.1578L53.8919 78.841C53.6877 79.3155 53.2159 79.6477 52.6666 79.6477H50.6666C49.9302 79.6477 49.3333 79.0508 49.3333 78.3144V76.7632L48.3466 76.3138L46.6666 76.3144C45.9302 76.3144 45.3333 75.7175 45.3333 74.9811V71.6477C45.3333 70.9114 45.9302 70.3144 46.6666 70.3144L48.3366 70.3138L56.8549 67.0403C57.5423 66.7761 58.3136 67.1192 58.5778 67.8065ZM57.3333 68.2849L49.3333 71.3597V75.2983L57.3333 78.9446V68.2849ZM50.6666 77.3712V78.3144H52.6666V78.2825L50.6666 77.3712ZM47.9999 71.6477H46.6666V74.9811H47.9999V71.6477Z" fill="#1C1B1F"/>
<rect x="76" y="66.6475" width="25.2" height="14" rx="7" fill="#0D3ECC"/>
<circle cx="94.2001" cy="73.6471" r="4.9" fill="white"/>
<circle cx="52" cy="121.647" r="16" fill="#F6F7F7"/>
<g clip-path="url(#clip0_3470_71227)">
<path fill-rule="evenodd" clip-rule="evenodd" d="M53.3333 115.647C53.3333 115.279 53.6317 114.98 53.9999 114.98C54.3681 114.98 54.6666 115.279 54.6666 115.647V117.647C54.6666 117.724 54.6535 117.798 54.6294 117.867C54.6538 118.012 54.6666 118.162 54.6666 118.314C55.403 118.314 55.9999 118.911 55.9999 119.647H57.3333V118.647C57.3333 118.279 57.6317 117.98 57.9999 117.98C58.3681 117.98 58.6666 118.279 58.6666 118.647V120.314C58.6666 120.682 58.3681 120.98 57.9999 120.98H55.9999V122.314H57.9999C58.3681 122.314 58.6666 122.612 58.6666 122.98C58.6666 123.349 58.3681 123.647 57.9999 123.647H55.9999V124.314C55.9999 124.541 55.981 124.764 55.9446 124.98H57.9999C58.3681 124.98 58.6666 125.279 58.6666 125.647V127.314C58.6666 127.682 58.3681 127.98 57.9999 127.98C57.6317 127.98 57.3333 127.682 57.3333 127.314V126.314H55.4648C54.7732 127.509 53.4805 128.314 51.9999 128.314C50.5194 128.314 49.2267 127.509 48.535 126.314H46.6666V127.314C46.6666 127.682 46.3681 127.98 45.9999 127.98C45.6317 127.98 45.3333 127.682 45.3333 127.314V125.647C45.3333 125.279 45.6317 124.98 45.9999 124.98H48.0552C48.0189 124.764 47.9999 124.541 47.9999 124.314V123.647H45.9999C45.6317 123.647 45.3333 123.349 45.3333 122.98C45.3333 122.612 45.6317 122.314 45.9999 122.314H47.9999V120.98H45.9999C45.6317 120.98 45.3333 120.682 45.3333 120.314V118.647C45.3333 118.279 45.6317 117.98 45.9999 117.98C46.3681 117.98 46.6666 118.279 46.6666 118.647V119.647H47.9999C47.9999 118.911 48.5969 118.314 49.3333 118.314C49.3333 118.162 49.346 118.012 49.3705 117.867C49.3464 117.798 49.3333 117.724 49.3333 117.647V115.647C49.3333 115.279 49.6317 114.98 49.9999 114.98C50.3681 114.98 50.6666 115.279 50.6666 115.647V116.004C51.0588 115.777 51.5142 115.647 51.9999 115.647C52.4856 115.647 52.941 115.777 53.3333 116.004V115.647ZM49.3333 124.314V122.981V122.98V122.98L49.3333 119.647L54.6666 119.647V122.98V124.314C54.6666 125.787 53.4727 126.98 51.9999 126.98C50.5272 126.98 49.3333 125.787 49.3333 124.314ZM51.9999 116.98C52.7363 116.98 53.3333 117.577 53.3333 118.314L50.6666 118.314C50.6666 117.577 51.2635 116.98 51.9999 116.98Z" fill="#1C1B1F"/>
</g>
<rect x="76" y="114.647" width="25.2" height="14" rx="7" fill="#0D3ECC"/>
<circle cx="94.2001" cy="121.647" r="4.9" fill="white"/>
<circle cx="52" cy="169.647" r="16" fill="#F6F7F7"/>
<g clip-path="url(#clip1_3470_71227)">
<path fill-rule="evenodd" clip-rule="evenodd" d="M49.3333 162.98C49.7014 162.98 49.9999 163.279 49.9999 163.647V164.314H57.317C58.0624 164.314 58.6666 164.918 58.6666 165.663V173.631C58.6666 174.376 58.0624 174.98 57.317 174.98H46.6828C45.9375 174.98 45.3333 174.376 45.3333 173.631V165.663C45.3333 164.918 45.9375 164.314 46.6828 164.314H48.6666V163.647C48.6666 163.279 48.9651 162.98 49.3333 162.98ZM57.3333 165.647H46.6666V173.647H57.3333V165.647ZM55.2593 166.805C55.3072 166.865 55.3333 166.939 55.3333 167.016V169.647C55.3333 171.488 53.8409 172.98 51.9999 172.98C50.159 172.98 48.6666 171.488 48.6666 169.647V167.647C48.6666 167.279 48.9651 166.98 49.3333 166.98C49.6751 166.98 49.9569 167.238 49.9954 167.569L49.9999 167.647V169.647C49.9999 170.752 50.8953 171.647 51.9999 171.647C53.1045 171.647 53.9999 170.752 53.9999 169.647L53.9993 168.98H52.9618C52.7754 168.98 52.6244 168.829 52.6244 168.643C52.6244 168.541 52.671 168.444 52.751 168.38L54.7851 166.752C54.9306 166.636 55.1429 166.66 55.2593 166.805Z" fill="#1C1B1F" fill-opacity="0.5"/>
</g>
<rect x="76" y="162.647" width="25.2" height="14" rx="7" fill="#9799A3"/>
<circle cx="83.9" cy="169.547" r="4.9" fill="white"/>
<g filter="url(#filter0_d_3470_71227)">
<path fill-rule="evenodd" clip-rule="evenodd" d="M100.141 177.352C100.14 176.784 99.6927 176.324 99.1409 176.324C98.5886 176.324 98.1409 176.785 98.1409 177.353V178.383L98.1409 179.155C98.1409 179.297 98.0289 179.412 97.8909 179.412C97.7528 179.412 97.6409 179.297 97.6409 179.155V178.383H97.6408V173.235C97.6408 172.667 97.1931 172.206 96.6408 172.206C96.0885 172.206 95.6408 172.667 95.6408 173.235V178.383V180.441V181.733L94.8748 180.312C94.6068 179.815 93.9981 179.636 93.5152 179.911C93.0323 180.187 92.8581 180.814 93.126 181.311L95.89 186.438C96.183 186.982 96.7222 187.296 97.2849 187.315C97.6921 187.527 98.1529 187.647 98.6408 187.647H102.141C103.798 187.647 105.141 186.265 105.141 184.559V180.453L105.141 180.441V178.383C105.141 177.814 104.693 177.353 104.141 177.353C103.589 177.353 103.141 177.814 103.141 178.383L103.141 179.155C103.141 179.297 103.029 179.412 102.891 179.412C102.753 179.412 102.641 179.297 102.641 179.155L102.641 178.383V177.353L102.641 177.352C102.64 176.784 102.193 176.324 101.641 176.324C101.089 176.324 100.641 176.785 100.641 177.353V178.383L100.641 179.155C100.641 179.297 100.529 179.412 100.391 179.412C100.253 179.412 100.141 179.297 100.141 179.155V177.352Z" fill="url(#paint0_linear_3470_71227)"/>
</g>
<path fill-rule="evenodd" clip-rule="evenodd" d="M100.641 177.353C100.641 177.353 100.641 177.352 100.641 177.352C100.641 177.352 100.641 177.352 100.641 177.352C100.641 177.039 100.777 176.759 100.991 176.571C101.166 176.417 101.393 176.324 101.641 176.324C102.097 176.324 102.482 176.638 102.602 177.068C102.627 177.158 102.641 177.253 102.641 177.352V179.155C102.641 179.297 102.753 179.412 102.891 179.412C103.029 179.412 103.141 179.297 103.141 179.155L103.141 178.383C103.141 178.002 103.342 177.669 103.641 177.491C103.788 177.403 103.959 177.353 104.141 177.353C104.693 177.353 105.141 177.814 105.141 178.383V180.441L105.141 180.453V184.559C105.141 186.265 103.798 187.647 102.141 187.647H98.6407C98.1528 187.647 97.6921 187.527 97.2849 187.315C96.7222 187.296 96.183 186.982 95.8899 186.438L93.126 181.311C92.858 180.814 93.0322 180.187 93.5151 179.912C93.8867 179.699 94.3327 179.757 94.6407 180.021C94.733 180.1 94.813 180.198 94.8747 180.312L95.6407 181.733V173.236C95.6407 172.667 96.0885 172.206 96.6407 172.206C97.193 172.206 97.6407 172.667 97.6407 173.236V178.383L97.6408 179.155C97.6408 179.297 97.7527 179.412 97.8908 179.412C98.0289 179.412 98.1408 179.297 98.1408 179.155L98.1408 177.353C98.1408 176.972 98.3419 176.64 98.6407 176.462C98.7878 176.374 98.9586 176.324 99.1408 176.324C99.3888 176.324 99.6156 176.417 99.7904 176.571C100.005 176.759 100.14 177.039 100.141 177.352V179.155C100.141 179.297 100.253 179.412 100.391 179.412C100.529 179.412 100.641 179.297 100.641 179.155L100.641 177.353ZM100.391 175.746C100.733 175.463 101.168 175.294 101.641 175.294C102.432 175.294 103.116 175.767 103.44 176.454C103.658 176.37 103.894 176.324 104.141 176.324C105.245 176.324 106.141 177.246 106.141 178.383V180.447L106.141 180.456V184.559C106.141 186.833 104.35 188.677 102.141 188.677H98.6407C98.0664 188.677 97.5181 188.552 97.0222 188.325C96.2073 188.225 95.4459 187.736 95.0155 186.938L92.2516 181.811C91.7156 180.816 92.0641 179.563 93.0299 179.011C93.5425 178.719 94.1259 178.682 94.6407 178.861V173.236C94.6407 172.099 95.5362 171.177 96.6407 171.177C97.7453 171.177 98.6407 172.099 98.6407 173.236V175.359C98.8006 175.317 98.9681 175.294 99.1408 175.294C99.6138 175.294 100.048 175.463 100.391 175.746Z" fill="#1C1B1F"/>
<path d="M142.393 70.0972L143.502 65.8828H144.672L144.256 67.9956L143.159 71.8828H142.221L142.393 70.0972ZM141.955 65.8828L142.643 70.064L142.72 71.8828H141.584L140.164 65.8828H141.955ZM145.659 69.9752L146.353 65.8828H148.144L146.735 71.8828H145.598L145.659 69.9752ZM144.805 65.8828L145.926 70.0861L146.098 71.8828H145.149L144.073 68.0067L143.674 65.8828H144.805Z" fill="#B9BBC1"/>
<path d="M150.739 70.0972L151.848 65.8828H153.018L152.603 67.9956L151.505 71.8828H150.567L150.739 70.0972ZM150.301 65.8828L150.989 70.064L151.066 71.8828H149.93L148.51 65.8828H150.301ZM154.005 69.9752L154.699 65.8828H156.49L155.081 71.8828H153.944L154.005 69.9752ZM153.151 65.8828L154.272 70.0861L154.444 71.8828H153.495L152.42 68.0067L152.02 65.8828H153.151Z" fill="#B9BBC1"/>
<path d="M159.085 70.0972L160.194 65.8828H161.364L160.949 67.9956L159.851 71.8828H158.913L159.085 70.0972ZM158.647 65.8828L159.335 70.064L159.412 71.8828H158.276L156.856 65.8828H158.647ZM162.351 69.9752L163.045 65.8828H164.836L163.427 71.8828H162.29L162.351 69.9752ZM161.498 65.8828L162.618 70.0861L162.79 71.8828H161.841L160.766 68.0067L160.366 65.8828H161.498Z" fill="#B9BBC1"/>
<rect x="167.836" y="65.8828" width="50" height="6" rx="3" fill="#B9BBC1"/>
<path fill-rule="evenodd" clip-rule="evenodd" d="M177.2 106.883V109.089C177.731 108.791 178.341 108.61 179 108.61C179.549 108.61 180.064 108.736 180.528 108.95L180.8 109.089V106.883H182.6L182.598 112.063L186.2 112.065V110.337H188L188 113.792H184.4V115.519H188V117.246H184.4V118.974H188L188 122.428H186.2V120.701H184.4L184.391 121.005C184.227 123.726 181.876 125.883 179 125.883C176.124 125.883 173.773 123.726 173.609 121.005L173.6 120.701H171.8V122.428H170V118.974L173.598 118.972V117.245L170 117.246V115.519L173.598 115.517V113.79L170 113.792V110.337H171.8V112.065L175.398 112.063L175.4 106.883H177.2Z" fill="#CFD8F5"/>
<circle cx="179" cy="115.883" r="22" stroke="#CFD8F5" stroke-width="8"/>
<rect x="136" y="159.883" width="6" height="6" rx="3" fill="#DCDDE0"/>
<rect x="146" y="159.883" width="76" height="6" rx="3" fill="#DCDDE0"/>
<rect x="136" y="177.883" width="6" height="6" rx="3" fill="#DCDDE0"/>
<rect x="146" y="177.883" width="76" height="6" rx="3" fill="#DCDDE0"/>
<rect x="136" y="195.883" width="6" height="6" rx="3" fill="#DCDDE0"/>
<rect x="146" y="195.883" width="76" height="6" rx="3" fill="#DCDDE0"/>
<rect x="136" y="213.883" width="6" height="6" rx="3" fill="#DCDDE0"/>
<rect x="146" y="213.883" width="76" height="6" rx="3" fill="#DCDDE0"/>
<rect x="118" y="47.3525" width="1" height="191.471" fill="#E5E6E8"/>
<rect x="0.5" y="0.5" width="239" height="279" rx="15.5" stroke="#DDE4F8"/>
<defs>
<filter id="filter0_d_3470_71227" x="92.0002" y="172.206" width="14.1406" height="17.4414" filterUnits="userSpaceOnUse" color-interpolation-filters="sRGB">
<feFlood flood-opacity="0" result="BackgroundImageFix"/>
<feColorMatrix in="SourceAlpha" type="matrix" values="0 0 0 0 0 0 0 0 0 0 0 0 0 0 0 0 0 0 127 0" result="hardAlpha"/>
<feOffset dy="1"/>
<feGaussianBlur stdDeviation="0.5"/>
<feComposite in2="hardAlpha" operator="out"/>
<feColorMatrix type="matrix" values="0 0 0 0 0 0 0 0 0 0 0 0 0 0 0 0 0 0 0.1 0"/>
<feBlend mode="normal" in2="BackgroundImageFix" result="effect1_dropShadow_3470_71227"/>
<feBlend mode="normal" in="SourceGraphic" in2="effect1_dropShadow_3470_71227" result="shape"/>
</filter>
<linearGradient id="paint0_linear_3470_71227" x1="99.0706" y1="172.206" x2="99.0706" y2="187.647" gradientUnits="userSpaceOnUse">
<stop offset="0.353422" stop-color="white"/>
<stop offset="1" stop-color="#E7E7E7"/>
</linearGradient>
<clipPath id="clip0_3470_71227">
<rect width="16" height="16" fill="white" transform="translate(44 113.647)"/>
</clipPath>
<clipPath id="clip1_3470_71227">
<rect width="16" height="16" fill="white" transform="translate(44 161.647)"/>
</clipPath>
</defs>
</svg>
