<svg width="240" height="280" viewBox="0 0 240 280" fill="none" xmlns="http://www.w3.org/2000/svg">
<mask id="mask0_3480_72423" style="mask-type:alpha" maskUnits="userSpaceOnUse" x="0" y="0" width="240" height="280">
<rect width="240" height="280" rx="16" fill="#DDE4F8"/>
</mask>
<g mask="url(#mask0_3480_72423)">
<rect width="240" height="280" rx="16" fill="#DDE4F8"/>
<rect x="20.5" y="29.5" width="225" height="226" rx="8.5" fill="white" stroke="#B6C5F0"/>
<path d="M21 38C21 33.5817 24.5817 30 29 30H237C241.418 30 245 33.5817 245 38V44.4118H21V38Z" fill="#F6F7F7"/>
</g>
<rect x="0.5" y="0.5" width="239" height="279" rx="15.5" stroke="#DDE4F8"/>
<rect x="31" y="67" width="202" height="106" rx="8" fill="#F6F7F7"/>
<rect x="32" y="53" width="61" height="6" rx="3" fill="#DCDDE0"/>
<rect x="98" y="240" width="68" height="6" rx="3" fill="#B6C5F0"/>
<rect x="210" y="53" width="23" height="6" rx="3" fill="#DCDDE0"/>
<path d="M157 70L157 173" stroke="#DCDDE0" stroke-dasharray="4 4"/>
<path d="M37 157L73 127.5L108.5 146L157.5 110L170.5 118H181.5L228 132" stroke="#7A95E3" stroke-width="3" stroke-linecap="round"/>
<rect x="30" y="188" width="45" height="30" rx="5" fill="white"/>
<rect x="30" y="188" width="45" height="30" rx="5" stroke="#CFD8F5" stroke-width="2"/>
<path d="M51.5778 197.159C51.6365 197.312 51.6666 197.474 51.6666 197.637V208.297C51.6666 209.033 51.0696 209.63 50.3333 209.63C50.1425 209.63 49.9539 209.59 49.7803 209.51L46.8919 208.194C46.6877 208.668 46.2159 209 45.6666 209H43.6666C42.9302 209 42.3333 208.403 42.3333 207.667V206.116L41.3466 205.666L39.6666 205.667C38.9302 205.667 38.3333 205.07 38.3333 204.334V201C38.3333 200.264 38.9302 199.667 39.6666 199.667L41.3366 199.666L49.8549 196.393C50.5423 196.129 51.3136 196.472 51.5778 197.159ZM50.3333 197.637L42.3333 200.712V204.651L50.3333 208.297V197.637ZM43.6666 206.724V207.667H45.6666V207.635L43.6666 206.724ZM40.9999 201H39.6666V204.334H40.9999V201Z" fill="#0D3ECC"/>
<rect x="31.5" y="189.5" width="42" height="27" rx="3.5" stroke="#3D65D6"/>
<rect x="84" y="189" width="43" height="28" rx="4" fill="#F6F7F7"/>
<g clip-path="url(#clip0_3480_72423)">
<path fill-rule="evenodd" clip-rule="evenodd" d="M99.3333 197C99.3333 196.631 99.6317 196.333 99.9999 196.333C100.368 196.333 100.667 196.631 100.667 197V199C100.667 199.077 100.653 199.151 100.629 199.22C100.654 199.365 100.667 199.514 100.667 199.666C101.403 199.666 102 200.263 102 201H103.333V200C103.333 199.631 103.632 199.333 104 199.333C104.368 199.333 104.667 199.631 104.667 200V201.666C104.667 202.035 104.368 202.333 104 202.333H102V203.666H104C104.368 203.666 104.667 203.965 104.667 204.333C104.667 204.701 104.368 205 104 205H102V205.666C102 205.893 101.981 206.116 101.945 206.333H104C104.368 206.333 104.667 206.631 104.667 207V208.666C104.667 209.035 104.368 209.333 104 209.333C103.632 209.333 103.333 209.035 103.333 208.666V207.666H101.465C100.773 208.862 99.4805 209.666 97.9999 209.666C96.5194 209.666 95.2267 208.862 94.535 207.666H92.6666V208.666C92.6666 209.035 92.3681 209.333 91.9999 209.333C91.6317 209.333 91.3333 209.035 91.3333 208.666V207C91.3333 206.631 91.6317 206.333 91.9999 206.333H94.0552C94.0189 206.116 93.9999 205.893 93.9999 205.666V205H91.9999C91.6317 205 91.3333 204.701 91.3333 204.333C91.3333 203.965 91.6317 203.666 91.9999 203.666H93.9999V202.333H91.9999C91.6317 202.333 91.3333 202.035 91.3333 201.666V200C91.3333 199.631 91.6317 199.333 91.9999 199.333C92.3681 199.333 92.6666 199.631 92.6666 200V201H93.9999C93.9999 200.263 94.5969 199.666 95.3333 199.666C95.3333 199.514 95.346 199.365 95.3705 199.22C95.3464 199.151 95.3333 199.077 95.3333 199V197C95.3333 196.631 95.6317 196.333 95.9999 196.333C96.3681 196.333 96.6666 196.631 96.6666 197V197.356C97.0588 197.13 97.5142 197 97.9999 197C98.4856 197 98.941 197.13 99.3333 197.356V197ZM95.3333 205.666V204.333V204.333V204.333L95.3333 201L100.667 201V204.333V205.666C100.667 207.139 99.4727 208.333 97.9999 208.333C96.5272 208.333 95.3333 207.139 95.3333 205.666ZM97.9999 198.333C98.7363 198.333 99.3333 198.93 99.3333 199.666L96.6666 199.666C96.6666 198.93 97.2635 198.333 97.9999 198.333Z" fill="#1C1B1F" fill-opacity="0.7"/>
</g>
<rect x="137" y="189" width="43" height="28" rx="4" fill="#F6F7F7"/>
<g clip-path="url(#clip1_3480_72423)">
<path fill-rule="evenodd" clip-rule="evenodd" d="M148.333 196.333C148.701 196.333 149 196.631 149 197V197.666H156.317C157.062 197.666 157.667 198.271 157.667 199.016V206.983C157.667 207.729 157.062 208.333 156.317 208.333H145.683C144.937 208.333 144.333 207.729 144.333 206.983V199.016C144.333 198.271 144.937 197.666 145.683 197.666H147.667V197C147.667 196.631 147.965 196.333 148.333 196.333ZM156.333 199H145.667V207H156.333V199ZM154.259 200.158C154.307 200.217 154.333 200.292 154.333 200.368V203C154.333 204.841 152.841 206.333 151 206.333C149.159 206.333 147.667 204.841 147.667 203V201C147.667 200.631 147.965 200.333 148.333 200.333C148.675 200.333 148.957 200.59 148.995 200.922L149 201V203C149 204.104 149.895 205 151 205C152.104 205 153 204.104 153 203L152.999 202.333H151.962C151.775 202.333 151.624 202.182 151.624 201.996C151.624 201.893 151.671 201.796 151.751 201.732L153.785 200.105C153.931 199.988 154.143 200.012 154.259 200.158Z" fill="#1C1B1F" fill-opacity="0.7"/>
</g>
<rect x="190" y="189" width="43" height="28" rx="4" fill="#F6F7F7"/>
<g clip-path="url(#clip2_3480_72423)">
<path fill-rule="evenodd" clip-rule="evenodd" d="M208.606 197.431C208.867 197.691 208.867 198.113 208.606 198.373L199.178 207.802C198.918 208.062 198.496 208.062 198.235 207.802C197.975 207.541 197.975 207.119 198.235 206.859L199.289 205.805L199.172 205.694C198.885 205.413 198.622 205.106 198.385 204.774L198.263 204.596L197.198 203L198.263 201.403C199.457 199.612 201.417 198.485 203.565 198.347L203.781 198.337L204 198.333C204.812 198.333 205.605 198.476 206.348 198.745L207.664 197.431C207.924 197.17 208.346 197.17 208.606 197.431ZM208.289 199.829C208.788 200.226 209.236 200.694 209.614 201.226L209.737 201.403L210.801 203L209.737 204.596C208.542 206.388 206.582 207.514 204.434 207.652L204.219 207.663L204 207.666C202.98 207.666 201.991 207.441 201.094 207.024L202.114 206.005C202.589 206.176 203.089 206.283 203.601 206.319L203.791 206.33L203.989 206.333L204.185 206.33C205.913 206.272 207.513 205.414 208.518 204.014L208.627 203.856L209.198 203L208.627 202.143C208.273 201.611 207.835 201.153 207.338 200.78L208.289 199.829ZM206.36 201.758L206.419 201.875C206.578 202.217 206.666 202.598 206.666 203C206.666 204.472 205.472 205.666 204 205.666C203.552 205.666 203.129 205.556 202.758 205.36L206.36 201.758ZM204.011 199.666L203.814 199.669C202.087 199.727 200.486 200.585 199.481 201.985L199.372 202.143L198.8 203L199.372 203.856C199.621 204.229 199.91 204.566 200.232 204.863L201.419 203.675L201.417 203.667C201.362 203.454 201.333 203.23 201.333 203C201.333 201.527 202.527 200.333 204 200.333C204.233 200.333 204.459 200.363 204.675 200.419L205.277 199.816L205.177 199.792C204.917 199.736 204.651 199.698 204.383 199.679L204.192 199.67L204.011 199.666Z" fill="#1C1B1F" fill-opacity="0.7"/>
</g>
<g filter="url(#filter0_d_3480_72423)">
<path fill-rule="evenodd" clip-rule="evenodd" d="M64.1409 214.999C64.1401 214.447 63.6927 214 63.1409 214C62.5886 214 62.1409 214.448 62.1409 215V216L62.1409 216.75C62.1409 216.888 62.0289 217 61.8909 217C61.7528 217 61.6409 216.888 61.6409 216.75V216H61.6408V211C61.6408 210.448 61.1931 210 60.6408 210C60.0885 210 59.6408 210.448 59.6408 211V216V218V219.255L58.8748 217.874C58.6068 217.391 57.9981 217.217 57.5152 217.485C57.0323 217.753 56.8581 218.362 57.126 218.845L59.89 223.825C60.183 224.353 60.7222 224.659 61.2849 224.677C61.6921 224.884 62.1529 225 62.6408 225H66.1408C67.7977 225 69.1408 223.657 69.1408 222V218.011L69.1409 218V216C69.1409 215.448 68.6932 215 68.1409 215C67.5886 215 67.1409 215.448 67.1409 216L67.1409 216.75C67.1409 216.888 67.0289 217 66.8909 217C66.7528 217 66.6409 216.888 66.6409 216.75L66.6409 216V215L66.6409 214.999C66.6401 214.447 66.1927 214 65.6409 214C65.0886 214 64.6409 214.448 64.6409 215V216L64.6409 216.75C64.6409 216.888 64.5289 217 64.3909 217C64.2528 217 64.1409 216.888 64.1409 216.75V214.999Z" fill="url(#paint0_linear_3480_72423)"/>
</g>
<path fill-rule="evenodd" clip-rule="evenodd" d="M64.6408 215C64.6408 215 64.6408 214.999 64.6408 214.999C64.6408 214.998 64.6408 214.999 64.6408 214.999C64.6414 214.695 64.7772 214.423 64.9912 214.24C65.166 214.09 65.3928 214 65.6408 214C66.0968 214 66.4816 214.305 66.6018 214.723C66.6271 214.81 66.6407 214.903 66.6408 214.999V216.75C66.6408 216.888 66.7527 217 66.8908 217C67.0289 217 67.1408 216.888 67.1408 216.75L67.1408 216C67.1408 215.63 67.3419 215.307 67.6408 215.134C67.7879 215.049 67.9587 215 68.1408 215C68.6931 215 69.1408 215.448 69.1408 216V218L69.1407 218.011V222C69.1407 223.657 67.7976 225 66.1407 225H62.6407C62.1528 225 61.6921 224.884 61.2849 224.677C60.7222 224.659 60.183 224.353 59.8899 223.825L57.126 218.845C56.858 218.362 57.0322 217.753 57.5151 217.485C57.8867 217.279 58.3327 217.335 58.6407 217.591C58.733 217.668 58.813 217.763 58.8747 217.874L59.6407 219.255V211C59.6407 210.448 60.0885 210 60.6407 210C61.193 210 61.6407 210.448 61.6407 211V216L61.6408 216.75C61.6408 216.888 61.7527 217 61.8908 217C62.0289 217 62.1408 216.888 62.1408 216.75L62.1408 215C62.1408 214.63 62.3419 214.307 62.6407 214.134C62.7878 214.049 62.9586 214 63.1408 214C63.3888 214 63.6156 214.09 63.7904 214.24C64.0045 214.423 64.1404 214.695 64.1408 214.999V216.75C64.1408 216.888 64.2527 217 64.3908 217C64.5289 217 64.6408 216.888 64.6408 216.75L64.6408 215ZM64.3908 213.439C64.7332 213.164 65.1678 213 65.6408 213C66.432 213 67.1159 213.459 67.4403 214.126C67.6583 214.045 67.8943 214 68.1408 214C69.2454 214 70.1408 214.895 70.1408 216V218.006L70.1407 218.014V222C70.1407 224.209 68.3499 226 66.1407 226H62.6407C62.0663 226 61.5181 225.878 61.0222 225.659C60.2073 225.561 59.4459 225.086 59.0155 224.311L56.2516 219.33C55.7156 218.364 56.0641 217.147 57.0299 216.611C57.5425 216.326 58.1259 216.291 58.6407 216.465V211C58.6407 209.895 59.5362 209 60.6407 209C61.7453 209 62.6407 209.895 62.6407 211V213.063C62.8006 213.022 62.9681 213 63.1408 213C63.6138 213 64.0484 213.164 64.3908 213.439Z" fill="#1C1B1F"/>
<path fill-rule="evenodd" clip-rule="evenodd" d="M147 88C144.791 88 143 89.7909 143 92V100C143 102.209 144.791 104 147 104H155.075L157.5 107L159.925 104H168C170.209 104 172 102.209 172 100V92C172 89.7909 170.209 88 168 88H147Z" fill="#0D3ECC"/>
<path fill-rule="evenodd" clip-rule="evenodd" d="M147 96C147 93.7909 148.791 92 151 92C153.209 92 155 93.7909 155 96C155 98.2091 153.209 100 151 100C148.791 100 147 98.2091 147 96ZM151 93.2075C149.458 93.2075 148.208 94.4578 148.208 96C148.208 96.5528 148.368 97.0677 148.645 97.5011L152.501 93.6449C152.068 93.368 151.553 93.2075 151 93.2075ZM149.499 98.355C149.932 98.632 150.447 98.7925 151 98.7925C152.542 98.7925 153.792 97.5422 153.792 96C153.792 95.4472 153.632 94.9322 153.355 94.4988L149.499 98.355Z" fill="#CFD8F5"/>
<path d="M164.359 96.3369L163.05 96.0293L163.48 92.3965H167.635V93.6758H164.822L164.661 95.0869C164.739 95.0413 164.871 94.9876 165.057 94.9258C165.246 94.8607 165.454 94.8281 165.682 94.8281C166.033 94.8281 166.344 94.8818 166.614 94.9893C166.888 95.0934 167.119 95.248 167.308 95.4531C167.497 95.6549 167.638 95.904 167.733 96.2002C167.83 96.4964 167.879 96.835 167.879 97.2158C167.879 97.5218 167.829 97.818 167.728 98.1045C167.63 98.3877 167.479 98.6432 167.274 98.8711C167.072 99.0957 166.816 99.2747 166.507 99.4082C166.198 99.5384 165.831 99.6035 165.408 99.6035C165.093 99.6035 164.785 99.5547 164.485 99.457C164.186 99.3594 163.916 99.2194 163.675 99.0371C163.437 98.8516 163.248 98.6286 163.109 98.3682C162.972 98.1045 162.905 97.8099 162.908 97.4844H164.564C164.573 97.6569 164.614 97.8066 164.686 97.9336C164.757 98.0605 164.853 98.1598 164.974 98.2314C165.097 98.2998 165.239 98.334 165.399 98.334C165.561 98.334 165.696 98.3014 165.804 98.2363C165.911 98.1712 165.996 98.0817 166.058 97.9678C166.12 97.8538 166.164 97.7236 166.19 97.5771C166.216 97.4274 166.229 97.2695 166.229 97.1035C166.229 96.9277 166.209 96.7699 166.17 96.6299C166.134 96.4899 166.076 96.3711 165.994 96.2734C165.913 96.1725 165.807 96.096 165.677 96.0439C165.55 95.9919 165.397 95.9658 165.218 95.9658C164.98 95.9658 164.793 96.0065 164.656 96.0879C164.52 96.1693 164.42 96.2523 164.359 96.3369Z" fill="#DDE4F8"/>
<path d="M162.215 96.7275V97.9971H157.098L157 96.9912L159.856 92.3965H161.155L159.744 94.7061L158.572 96.7275H162.215ZM161.497 92.3965V99.5059H159.852V92.3965H161.497Z" fill="#DDE4F8"/>
<defs>
<filter id="filter0_d_3480_72423" x="56.0002" y="210" width="14.1406" height="17" filterUnits="userSpaceOnUse" color-interpolation-filters="sRGB">
<feFlood flood-opacity="0" result="BackgroundImageFix"/>
<feColorMatrix in="SourceAlpha" type="matrix" values="0 0 0 0 0 0 0 0 0 0 0 0 0 0 0 0 0 0 127 0" result="hardAlpha"/>
<feOffset dy="1"/>
<feGaussianBlur stdDeviation="0.5"/>
<feComposite in2="hardAlpha" operator="out"/>
<feColorMatrix type="matrix" values="0 0 0 0 0 0 0 0 0 0 0 0 0 0 0 0 0 0 0.1 0"/>
<feBlend mode="normal" in2="BackgroundImageFix" result="effect1_dropShadow_3480_72423"/>
<feBlend mode="normal" in="SourceGraphic" in2="effect1_dropShadow_3480_72423" result="shape"/>
</filter>
<linearGradient id="paint0_linear_3480_72423" x1="63.0706" y1="210" x2="63.0706" y2="225" gradientUnits="userSpaceOnUse">
<stop offset="0.353422" stop-color="white"/>
<stop offset="1" stop-color="#E7E7E7"/>
</linearGradient>
<clipPath id="clip0_3480_72423">
<rect width="16" height="16" fill="white" transform="translate(90 195)"/>
</clipPath>
<clipPath id="clip1_3480_72423">
<rect width="16" height="16" fill="white" transform="translate(143 195)"/>
</clipPath>
<clipPath id="clip2_3480_72423">
<rect width="16" height="16" fill="white" transform="translate(196 195)"/>
</clipPath>
</defs>
</svg>
