<svg width="240" height="280" viewBox="0 0 240 280" fill="none" xmlns="http://www.w3.org/2000/svg">
<mask id="mask0_3501_28270" style="mask-type:alpha" maskUnits="userSpaceOnUse" x="0" y="0" width="240" height="280">
<rect width="240" height="280" rx="16" fill="#DDE4F8"/>
</mask>
<g mask="url(#mask0_3501_28270)">
<rect width="240" height="280" rx="16" fill="#DDE4F8"/>
<rect x="21.5" y="26.2646" width="249" height="227.937" rx="8.5" fill="white" stroke="#B6C5F0"/>
<path d="M22 34.7646C22 30.3464 25.5817 26.7646 30 26.7646H262C266.418 26.7646 270 30.3464 270 34.7646V41.7605H22V34.7646Z" fill="#F6F7F7"/>
</g>
<path d="M38 104H239V241H46C41.5817 241 38 237.418 38 233V104Z" fill="#F6F7F7"/>
<path d="M40.9723 65.6192L42.451 60H44.0111L43.4566 62.817L41.9926 68H40.7431L40.9723 65.6192ZM40.3882 60L41.305 65.5749L41.4085 68H39.8928L38 60H40.3882ZM45.3272 65.4566L46.2514 60H48.6396L46.7616 68H45.2458L45.3272 65.4566ZM44.1885 60L45.6821 65.6044L45.9113 68H44.6469L43.2126 62.8318L42.6802 60H44.1885Z" fill="#B9BBC1"/>
<path d="M52.1003 65.6192L53.5791 60H55.1391L54.5846 62.817L53.1206 68H51.8711L52.1003 65.6192ZM51.5162 60L52.433 65.5749L52.5365 68H51.0208L49.128 60H51.5162ZM56.4552 65.4566L57.3794 60H59.7676L57.8896 68H56.3739L56.4552 65.4566ZM55.3166 60L56.8101 65.6044L57.0393 68H55.775L54.3406 62.8318L53.8083 60H55.3166Z" fill="#B9BBC1"/>
<path d="M63.2283 65.6192L64.7071 60H66.2672L65.7126 62.817L64.2487 68H62.9991L63.2283 65.6192ZM62.6442 60L63.5611 65.5749L63.6646 68H62.1489L60.2561 60H62.6442ZM67.5832 65.4566L68.5075 60H70.8956L69.0176 68H67.5019L67.5832 65.4566ZM66.4446 60L67.9381 65.6044L68.1673 68H66.903L65.4686 62.8318L64.9363 60H66.4446Z" fill="#B9BBC1"/>
<rect x="73.8955" y="60" width="87" height="8" rx="4" fill="#B9BBC1"/>
<path d="M38 89C38 85.6863 40.6863 83 44 83H240V104H38V89Z" fill="#CFD8F5"/>
<rect x="47" y="119" width="94" height="10" rx="5" fill="#E5E6E8"/>
<rect x="155" y="114" width="20" height="20" rx="10" fill="#E5E6E8"/>
<path d="M169.933 119.619C169.977 119.734 170 119.855 170 119.978V127.973C170 128.525 169.552 128.973 169 128.973C168.857 128.973 168.715 128.942 168.585 128.883L166.419 127.895C166.266 128.251 165.912 128.5 165.5 128.5H164C163.448 128.5 163 128.052 163 127.5V126.337L162.26 126L161 126C160.448 126 160 125.552 160 125V122.5C160 121.948 160.448 121.5 161 121.5L162.253 121.5L168.641 119.044C169.157 118.846 169.735 119.104 169.933 119.619ZM169 119.978L163 122.284V125.238L169 127.973V119.978ZM164 126.793V127.5H165.5V127.476L164 126.793ZM162 122.5H161V125H162V122.5Z" fill="#747784"/>
<rect x="183" y="114" width="20" height="20" rx="10" fill="#E5E6E8"/>
<g clip-path="url(#clip0_3501_28270)">
<path fill-rule="evenodd" clip-rule="evenodd" d="M194 119.5C194 119.224 194.224 119 194.5 119C194.776 119 195 119.224 195 119.5V121C195 121.058 194.99 121.113 194.972 121.165C194.99 121.274 195 121.386 195 121.5C195.552 121.5 196 121.948 196 122.5H197V121.75C197 121.474 197.224 121.25 197.5 121.25C197.776 121.25 198 121.474 198 121.75V123C198 123.276 197.776 123.5 197.5 123.5H196V124.5H197.5C197.776 124.5 198 124.724 198 125C198 125.276 197.776 125.5 197.5 125.5H196V126C196 126.17 195.986 126.337 195.959 126.5H197.5C197.776 126.5 198 126.724 198 127V128.25C198 128.526 197.776 128.75 197.5 128.75C197.224 128.75 197 128.526 197 128.25V127.5H195.599C195.08 128.397 194.11 129 193 129C191.89 129 190.92 128.397 190.401 127.5H189V128.25C189 128.526 188.776 128.75 188.5 128.75C188.224 128.75 188 128.526 188 128.25V127C188 126.724 188.224 126.5 188.5 126.5H190.041C190.014 126.337 190 126.17 190 126V125.5H188.5C188.224 125.5 188 125.276 188 125C188 124.724 188.224 124.5 188.5 124.5H190V123.5H188.5C188.224 123.5 188 123.276 188 123V121.75C188 121.474 188.224 121.25 188.5 121.25C188.776 121.25 189 121.474 189 121.75V122.5H190C190 121.948 190.448 121.5 191 121.5C191 121.386 191.01 121.274 191.028 121.165C191.01 121.113 191 121.058 191 121V119.5C191 119.224 191.224 119 191.5 119C191.776 119 192 119.224 192 119.5V119.768C192.294 119.597 192.636 119.5 193 119.5C193.364 119.5 193.706 119.597 194 119.768V119.5ZM191 126V125V125V125L191 122.5L195 122.5L195 125V126C195 127.105 194.105 128 193 128C191.895 128 191 127.105 191 126ZM193 120.5C193.552 120.5 194 120.948 194 121.5L192 121.5C192 120.948 192.448 120.5 193 120.5Z" fill="#747784"/>
</g>
<rect x="211" y="114" width="20" height="20" rx="10" fill="#E5E6E8"/>
<g clip-path="url(#clip1_3501_28270)">
<path fill-rule="evenodd" clip-rule="evenodd" d="M219 119C219.276 119 219.5 119.224 219.5 119.5V120H224.988C225.547 120 226 120.453 226 121.012V126.988C226 127.547 225.547 128 224.988 128H217.012C216.453 128 216 127.547 216 126.988V121.012C216 120.453 216.453 120 217.012 120H218.5V119.5C218.5 119.224 218.724 119 219 119ZM225 121H217V127H225V121ZM223.445 121.868C223.48 121.913 223.5 121.969 223.5 122.026V124C223.5 125.381 222.381 126.5 221 126.5C219.619 126.5 218.5 125.381 218.5 124V122.5C218.5 122.224 218.724 122 219 122C219.256 122 219.468 122.193 219.497 122.442L219.5 122.5V124C219.5 124.828 220.172 125.5 221 125.5C221.828 125.5 222.5 124.828 222.5 124L222.499 123.5H221.721C221.582 123.5 221.468 123.387 221.468 123.247C221.468 123.17 221.503 123.097 221.563 123.049L223.089 121.829C223.198 121.742 223.357 121.759 223.445 121.868Z" fill="#747784"/>
</g>
<rect x="47" y="140" width="193" height="1" rx="0.5" fill="#E5E6E8"/>
<rect x="47" y="152" width="69" height="10" rx="5" fill="#E5E6E8"/>
<rect x="155" y="147" width="20" height="20" rx="10" fill="#E5E6E8"/>
<rect x="183" y="147" width="20" height="20" rx="10" fill="#E5E6E8"/>
<g clip-path="url(#clip2_3501_28270)">
<path fill-rule="evenodd" clip-rule="evenodd" d="M194 152.5C194 152.224 194.224 152 194.5 152C194.776 152 195 152.224 195 152.5V154C195 154.058 194.99 154.113 194.972 154.165C194.99 154.274 195 154.386 195 154.5C195.552 154.5 196 154.948 196 155.5H197V154.75C197 154.474 197.224 154.25 197.5 154.25C197.776 154.25 198 154.474 198 154.75V156C198 156.276 197.776 156.5 197.5 156.5H196V157.5H197.5C197.776 157.5 198 157.724 198 158C198 158.276 197.776 158.5 197.5 158.5H196V159C196 159.17 195.986 159.337 195.959 159.5H197.5C197.776 159.5 198 159.724 198 160V161.25C198 161.526 197.776 161.75 197.5 161.75C197.224 161.75 197 161.526 197 161.25V160.5H195.599C195.08 161.397 194.11 162 193 162C191.89 162 190.92 161.397 190.401 160.5H189V161.25C189 161.526 188.776 161.75 188.5 161.75C188.224 161.75 188 161.526 188 161.25V160C188 159.724 188.224 159.5 188.5 159.5H190.041C190.014 159.337 190 159.17 190 159V158.5H188.5C188.224 158.5 188 158.276 188 158C188 157.724 188.224 157.5 188.5 157.5H190V156.5H188.5C188.224 156.5 188 156.276 188 156V154.75C188 154.474 188.224 154.25 188.5 154.25C188.776 154.25 189 154.474 189 154.75V155.5H190C190 154.948 190.448 154.5 191 154.5C191 154.386 191.01 154.274 191.028 154.165C191.01 154.113 191 154.058 191 154V152.5C191 152.224 191.224 152 191.5 152C191.776 152 192 152.224 192 152.5V152.768C192.294 152.597 192.636 152.5 193 152.5C193.364 152.5 193.706 152.597 194 152.768V152.5ZM191 159V158V158V158L191 155.5L195 155.5L195 158V159C195 160.105 194.105 161 193 161C191.895 161 191 160.105 191 159ZM193 153.5C193.552 153.5 194 153.948 194 154.5L192 154.5C192 153.948 192.448 153.5 193 153.5Z" fill="#747784"/>
</g>
<rect x="211" y="147" width="20" height="20" rx="10" fill="#E5E6E8"/>
<g clip-path="url(#clip3_3501_28270)">
<path fill-rule="evenodd" clip-rule="evenodd" d="M219 152C219.276 152 219.5 152.224 219.5 152.5V153H224.988C225.547 153 226 153.453 226 154.012V159.988C226 160.547 225.547 161 224.988 161H217.012C216.453 161 216 160.547 216 159.988V154.012C216 153.453 216.453 153 217.012 153H218.5V152.5C218.5 152.224 218.724 152 219 152ZM225 154H217V160H225V154ZM223.445 154.868C223.48 154.913 223.5 154.969 223.5 155.026V157C223.5 158.381 222.381 159.5 221 159.5C219.619 159.5 218.5 158.381 218.5 157V155.5C218.5 155.224 218.724 155 219 155C219.256 155 219.468 155.193 219.497 155.442L219.5 155.5V157C219.5 157.828 220.172 158.5 221 158.5C221.828 158.5 222.5 157.828 222.5 157L222.499 156.5H221.721C221.582 156.5 221.468 156.387 221.468 156.247C221.468 156.17 221.503 156.097 221.563 156.049L223.089 154.829C223.198 154.742 223.357 154.759 223.445 154.868Z" fill="#747784"/>
</g>
<rect x="47" y="173" width="193" height="1" rx="0.5" fill="#E5E6E8"/>
<rect x="47" y="185" width="80" height="10" rx="5" fill="#E5E6E8"/>
<rect x="155" y="180" width="20" height="20" rx="10" fill="#E5E6E8"/>
<path d="M169.933 185.619C169.977 185.734 170 185.855 170 185.978V193.973C170 194.525 169.552 194.973 169 194.973C168.857 194.973 168.715 194.942 168.585 194.883L166.419 193.895C166.266 194.251 165.912 194.5 165.5 194.5H164C163.448 194.5 163 194.052 163 193.5V192.337L162.26 192L161 192C160.448 192 160 191.552 160 191V188.5C160 187.948 160.448 187.5 161 187.5L162.253 187.5L168.641 185.044C169.157 184.846 169.735 185.104 169.933 185.619ZM169 185.978L163 188.284V191.238L169 193.973V185.978ZM164 192.793V193.5H165.5V193.476L164 192.793ZM162 188.5H161V191H162V188.5Z" fill="#747784"/>
<rect x="183" y="180" width="20" height="20" rx="10" fill="#E5E6E8"/>
<rect x="211" y="180" width="20" height="20" rx="10" fill="#E5E6E8"/>
<rect x="47" y="206" width="193" height="1" rx="0.5" fill="#E5E6E8"/>
<rect x="47" y="218" width="51" height="10" rx="5" fill="#E5E6E8"/>
<rect x="155" y="213" width="20" height="20" rx="10" fill="#E5E6E8"/>
<path d="M169.933 218.619C169.977 218.734 170 218.855 170 218.978V226.973C170 227.525 169.552 227.973 169 227.973C168.857 227.973 168.715 227.942 168.585 227.883L166.419 226.895C166.266 227.251 165.912 227.5 165.5 227.5H164C163.448 227.5 163 227.052 163 226.5V225.337L162.26 225L161 225C160.448 225 160 224.552 160 224V221.5C160 220.948 160.448 220.5 161 220.5L162.253 220.5L168.641 218.044C169.157 217.846 169.735 218.104 169.933 218.619ZM169 218.978L163 221.284V224.238L169 226.973V218.978ZM164 225.793V226.5H165.5V226.476L164 225.793ZM162 221.5H161V224H162V221.5Z" fill="#747784"/>
<rect x="183" y="213" width="20" height="20" rx="10" fill="#E5E6E8"/>
<g clip-path="url(#clip4_3501_28270)">
<path fill-rule="evenodd" clip-rule="evenodd" d="M194 218.5C194 218.224 194.224 218 194.5 218C194.776 218 195 218.224 195 218.5V220C195 220.058 194.99 220.113 194.972 220.165C194.99 220.274 195 220.386 195 220.5C195.552 220.5 196 220.948 196 221.5H197V220.75C197 220.474 197.224 220.25 197.5 220.25C197.776 220.25 198 220.474 198 220.75V222C198 222.276 197.776 222.5 197.5 222.5H196V223.5H197.5C197.776 223.5 198 223.724 198 224C198 224.276 197.776 224.5 197.5 224.5H196V225C196 225.17 195.986 225.337 195.959 225.5H197.5C197.776 225.5 198 225.724 198 226V227.25C198 227.526 197.776 227.75 197.5 227.75C197.224 227.75 197 227.526 197 227.25V226.5H195.599C195.08 227.397 194.11 228 193 228C191.89 228 190.92 227.397 190.401 226.5H189V227.25C189 227.526 188.776 227.75 188.5 227.75C188.224 227.75 188 227.526 188 227.25V226C188 225.724 188.224 225.5 188.5 225.5H190.041C190.014 225.337 190 225.17 190 225V224.5H188.5C188.224 224.5 188 224.276 188 224C188 223.724 188.224 223.5 188.5 223.5H190V222.5H188.5C188.224 222.5 188 222.276 188 222V220.75C188 220.474 188.224 220.25 188.5 220.25C188.776 220.25 189 220.474 189 220.75V221.5H190C190 220.948 190.448 220.5 191 220.5C191 220.386 191.01 220.274 191.028 220.165C191.01 220.113 191 220.058 191 220V218.5C191 218.224 191.224 218 191.5 218C191.776 218 192 218.224 192 218.5V218.768C192.294 218.597 192.636 218.5 193 218.5C193.364 218.5 193.706 218.597 194 218.768V218.5ZM191 225V224V224V224L191 221.5L195 221.5L195 224V225C195 226.105 194.105 227 193 227C191.895 227 191 226.105 191 225ZM193 219.5C193.552 219.5 194 219.948 194 220.5L192 220.5C192 219.948 192.448 219.5 193 219.5Z" fill="#747784"/>
</g>
<rect x="211" y="213" width="20" height="20" rx="10" fill="#E5E6E8"/>
<path d="M60.5823 94.8085C60.846 94.5515 61.2681 94.557 61.525 94.8207L61.5444 94.8405C61.7975 95.1003 61.7965 95.5149 61.542 95.7734L57.9479 99.4249C57.8124 99.558 57.6013 99.556 57.4724 99.4246L55.7916 97.7118C55.5371 97.4525 55.5371 97.0372 55.7916 96.7779L55.8102 96.7589C55.8131 96.7559 55.8161 96.753 55.8191 96.75C56.0818 96.4922 56.5039 96.4961 56.7618 96.7589L57.7094 97.7245L60.5726 94.8181L60.5823 94.8085ZM53.6667 96.6667C54.0349 96.6667 54.3333 96.9651 54.3333 97.3333C54.3333 97.7015 54.0349 98 53.6667 98H49.6667C49.2985 98 49 97.7015 49 97.3333C49 96.9651 49.2985 96.6667 49.6667 96.6667H53.6667ZM57 93.3333C57.3682 93.3333 57.6667 93.6318 57.6667 94C57.6667 94.3682 57.3682 94.6667 57 94.6667H49.6667C49.2985 94.6667 49 94.3682 49 94C49 93.6318 49.2985 93.3333 49.6667 93.3333H57ZM60.3333 90C60.7015 90 61 90.2985 61 90.6667C61 91.0349 60.7015 91.3333 60.3333 91.3333H49.6667C49.2985 91.3333 49 91.0349 49 90.6667C49 90.2985 49.2985 90 49.6667 90H60.3333Z" fill="#0D3ECC"/>
<rect x="182" y="56" width="49" height="15" rx="7.5" fill="#0D3ECC"/>
<path fill-rule="evenodd" clip-rule="evenodd" d="M191.583 60.5837C191.583 60.0774 191.994 59.667 192.5 59.667C193.006 59.667 193.417 60.0774 193.417 60.5837V62.5837H195.417C195.923 62.5837 196.333 62.9941 196.333 63.5003C196.333 64.0066 195.923 64.417 195.417 64.417H193.417V66.417C193.417 66.9233 193.006 67.3337 192.5 67.3337C191.994 67.3337 191.583 66.9233 191.583 66.417V64.417H189.583C189.077 64.417 188.667 64.0066 188.667 63.5003C188.667 62.9941 189.077 62.5837 189.583 62.5837H191.583V60.5837Z" fill="#3D65D6"/>
<rect x="200.333" y="61.5" width="24" height="4" rx="2" fill="#3D65D6"/>
<g filter="url(#filter0_d_3501_28270)">
<path fill-rule="evenodd" clip-rule="evenodd" d="M222.141 69.3517C222.14 68.7838 221.693 68.3237 221.141 68.3237C220.589 68.3237 220.141 68.7846 220.141 69.3531V70.3825L220.141 71.1546C220.141 71.2967 220.029 71.4119 219.891 71.4119C219.753 71.4119 219.641 71.2967 219.641 71.1546V70.3825H219.641V65.2355C219.641 64.6669 219.193 64.2061 218.641 64.2061C218.089 64.2061 217.641 64.6669 217.641 65.2355V70.3825V72.4413V73.7329L216.875 72.312C216.607 71.8149 215.998 71.6356 215.515 71.9114C215.032 72.1873 214.858 72.8139 215.126 73.3111L217.89 78.4381C218.183 78.9817 218.722 79.2957 219.285 79.3146C219.692 79.5273 220.153 79.6472 220.641 79.6472H224.141C225.798 79.6472 227.141 78.2646 227.141 76.559V72.453L227.141 72.4413V70.3825C227.141 69.814 226.693 69.3531 226.141 69.3531C225.589 69.3531 225.141 69.814 225.141 70.3825L225.141 71.1546C225.141 71.2967 225.029 71.4119 224.891 71.4119C224.753 71.4119 224.641 71.2967 224.641 71.1546L224.641 70.3825V69.3531L224.641 69.3517C224.64 68.7838 224.193 68.3237 223.641 68.3237C223.089 68.3237 222.641 68.7846 222.641 69.3531V70.3825L222.641 71.1546C222.641 71.2967 222.529 71.4119 222.391 71.4119C222.253 71.4119 222.141 71.2967 222.141 71.1546V69.3517Z" fill="url(#paint0_linear_3501_28270)"/>
</g>
<path fill-rule="evenodd" clip-rule="evenodd" d="M222.641 69.3532C222.641 69.3527 222.641 69.3523 222.641 69.3518C222.641 69.3516 222.641 69.352 222.641 69.3518C222.641 69.0394 222.777 68.7589 222.991 68.5706C223.166 68.4167 223.393 68.3238 223.641 68.3238C224.097 68.3238 224.482 68.6381 224.602 69.0677C224.627 69.1579 224.641 69.2532 224.641 69.3518V71.1547C224.641 71.2968 224.753 71.4121 224.891 71.4121C225.029 71.4121 225.141 71.2968 225.141 71.1547L225.141 70.3826C225.141 70.0016 225.342 69.6689 225.641 69.4909C225.788 69.4034 225.959 69.3532 226.141 69.3532C226.693 69.3532 227.141 69.8141 227.141 70.3826V72.4415L227.141 72.4531V76.5591C227.141 78.2647 225.798 79.6473 224.141 79.6473H220.641C220.153 79.6473 219.692 79.5274 219.285 79.3147C218.722 79.2958 218.183 78.9818 217.89 78.4382L215.126 73.3112C214.858 72.8141 215.032 72.1874 215.515 71.9116C215.887 71.6993 216.333 71.7565 216.641 72.0206C216.733 72.0998 216.813 72.1975 216.875 72.3121L217.641 73.733V65.2356C217.641 64.6671 218.088 64.2062 218.641 64.2062C219.193 64.2062 219.641 64.6671 219.641 65.2356V70.3826L219.641 71.1547C219.641 71.2968 219.753 71.4121 219.891 71.4121C220.029 71.4121 220.141 71.2968 220.141 71.1547L220.141 69.3532C220.141 68.9722 220.342 68.6396 220.641 68.4616C220.788 68.374 220.959 68.3238 221.141 68.3238C221.389 68.3238 221.616 68.4167 221.79 68.5706C222.005 68.7591 222.14 69.0391 222.141 69.3518V71.1547C222.141 71.2968 222.253 71.4121 222.391 71.4121C222.529 71.4121 222.641 71.2968 222.641 71.1547L222.641 69.3532ZM222.391 67.746C222.733 67.4634 223.168 67.2944 223.641 67.2944C224.432 67.2944 225.116 67.7674 225.44 68.4536C225.658 68.3697 225.894 68.3238 226.141 68.3238C227.245 68.3238 228.141 69.2456 228.141 70.3826V72.4472L228.141 72.456V76.5591C228.141 78.8332 226.35 80.6768 224.141 80.6768H220.641C220.066 80.6768 219.518 80.5515 219.022 80.3255C218.207 80.2246 217.446 79.736 217.016 78.9377L214.252 73.8107C213.716 72.8165 214.064 71.5632 215.03 71.0115C215.542 70.7186 216.126 70.6823 216.641 70.8612V65.2356C216.641 64.0985 217.536 63.1768 218.641 63.1768C219.745 63.1768 220.641 64.0985 220.641 65.2356V67.3593C220.801 67.3169 220.968 67.2944 221.141 67.2944C221.614 67.2944 222.048 67.4634 222.391 67.746Z" fill="#1C1B1F"/>
<rect x="0.5" y="0.5" width="239" height="279" rx="15.5" stroke="#DDE4F8"/>
<defs>
<filter id="filter0_d_3501_28270" x="214" y="64.2061" width="14.1406" height="17.4414" filterUnits="userSpaceOnUse" color-interpolation-filters="sRGB">
<feFlood flood-opacity="0" result="BackgroundImageFix"/>
<feColorMatrix in="SourceAlpha" type="matrix" values="0 0 0 0 0 0 0 0 0 0 0 0 0 0 0 0 0 0 127 0" result="hardAlpha"/>
<feOffset dy="1"/>
<feGaussianBlur stdDeviation="0.5"/>
<feComposite in2="hardAlpha" operator="out"/>
<feColorMatrix type="matrix" values="0 0 0 0 0 0 0 0 0 0 0 0 0 0 0 0 0 0 0.1 0"/>
<feBlend mode="normal" in2="BackgroundImageFix" result="effect1_dropShadow_3501_28270"/>
<feBlend mode="normal" in="SourceGraphic" in2="effect1_dropShadow_3501_28270" result="shape"/>
</filter>
<linearGradient id="paint0_linear_3501_28270" x1="221.071" y1="64.2061" x2="221.071" y2="79.6472" gradientUnits="userSpaceOnUse">
<stop offset="0.353422" stop-color="white"/>
<stop offset="1" stop-color="#E7E7E7"/>
</linearGradient>
<clipPath id="clip0_3501_28270">
<rect width="12" height="12" fill="white" transform="translate(187 118)"/>
</clipPath>
<clipPath id="clip1_3501_28270">
<rect width="12" height="12" fill="white" transform="translate(215 118)"/>
</clipPath>
<clipPath id="clip2_3501_28270">
<rect width="12" height="12" fill="white" transform="translate(187 151)"/>
</clipPath>
<clipPath id="clip3_3501_28270">
<rect width="12" height="12" fill="white" transform="translate(215 151)"/>
</clipPath>
<clipPath id="clip4_3501_28270">
<rect width="12" height="12" fill="white" transform="translate(187 217)"/>
</clipPath>
</defs>
</svg>
