<svg width="200" height="276" viewBox="0 0 200 276" fill="none" xmlns="http://www.w3.org/2000/svg">
<rect width="200" height="276" rx="16" fill="#282A32"/>
<path opacity="0.5" fill-rule="evenodd" clip-rule="evenodd" d="M165.94 118.993C169.801 112.033 172 104.023 172 95.5C172 68.7142 150.286 47 123.5 47C96.7142 47 75 68.7142 75 95.5C75 99.4849 75.4806 103.358 76.387 107.063C70.7939 105.08 64.7731 104 58.5 104C28.9528 104 5 127.953 5 157.5C5 187.047 28.9528 211 58.5 211C68.0638 211 77.0414 208.491 84.8104 204.094C95.6198 216.303 111.411 224 129 224C161.585 224 188 197.585 188 165C188 146.398 179.391 129.807 165.94 118.993Z" fill="#414451"/>
<path d="M42.1426 107.787C42.1426 101.538 45.6856 95.8289 51.2855 93.055L93.3024 72.2425C97.9007 69.9649 103.299 69.9649 107.897 72.2425L149.914 93.055C155.514 95.8289 159.057 101.538 159.057 107.787V128.711C159.057 155.476 145.108 180.307 122.25 194.232L106.302 203.947C102.8 206.081 98.3997 206.081 94.8976 203.947L78.9491 194.232C56.0913 180.307 42.1426 155.476 42.1426 128.711V107.787Z" fill="#3D65D6"/>
<path d="M46.9922 103.641C48.2243 102.418 49.6613 101.38 51.268 100.584L93.3161 79.7564C97.9056 77.4831 103.293 77.4831 107.883 79.7564L149.931 100.584C151.537 101.38 152.974 102.418 154.206 103.64C152.67 100.211 149.974 97.345 146.478 95.6236L107.848 76.602C103.278 74.3514 97.921 74.3514 93.3505 76.602L54.7209 95.6236C51.2248 97.3452 48.5278 100.212 46.9922 103.641Z" fill="#3F87F3"/>
<path fill-rule="evenodd" clip-rule="evenodd" d="M78.3795 94.6077C78.3795 93.8524 78.9917 93.2402 79.7469 93.2402H127.05C136.92 93.2402 145.383 99.8924 145.383 108.624C145.383 117.355 136.92 124.007 127.05 124.007H53.0823C52.3271 124.007 51.7148 123.395 51.7148 122.64C51.7148 121.885 52.3271 121.272 53.0823 121.272H127.05C135.922 121.272 142.648 115.379 142.648 108.624C142.648 101.868 135.922 95.9751 127.05 95.9751H79.7469C78.9917 95.9751 78.3795 95.3629 78.3795 94.6077Z" fill="#3F87F3"/>
<path fill-rule="evenodd" clip-rule="evenodd" d="M106.387 187.805L94.6614 187.805C84.791 187.805 76.3282 181.153 76.3282 172.421C76.3282 163.69 84.791 157.038 94.6614 157.038L140.939 157.038C141.694 157.038 142.306 157.65 142.306 158.405C142.306 159.16 141.694 159.773 140.939 159.773L94.6614 159.773C85.7892 159.773 79.063 165.666 79.063 172.421C79.063 179.176 85.7892 185.07 94.6614 185.07L106.387 185.07C107.142 185.07 107.754 185.682 107.754 186.437C107.754 187.192 107.142 187.805 106.387 187.805Z" fill="#3F87F3"/>
<path d="M143.354 111.249C141.091 111.249 139.249 109.407 139.249 107.144C139.249 104.881 141.091 103.039 143.354 103.039C145.617 103.039 147.459 104.881 147.459 107.144C147.459 109.407 145.617 111.249 143.354 111.249Z" fill="#0F68EE"/>
<path fill-rule="evenodd" clip-rule="evenodd" d="M143.354 104.407C141.846 104.407 140.616 105.636 140.616 107.144C140.616 108.652 141.846 109.882 143.354 109.882C144.861 109.882 146.091 108.652 146.091 107.144C146.091 105.636 144.861 104.407 143.354 104.407ZM137.881 107.144C137.881 104.126 140.335 101.672 143.354 101.672C146.372 101.672 148.826 104.126 148.826 107.144C148.826 110.162 146.372 112.616 143.354 112.616C140.335 112.616 137.881 110.162 137.881 107.144Z" fill="#3F87F3"/>
<path d="M61.9701 126.953C59.7071 126.953 57.8652 125.111 57.8652 122.848C57.8652 120.585 59.7071 118.743 61.9701 118.743C64.2331 118.743 66.0749 120.585 66.0749 122.848C66.0749 125.111 64.2331 126.953 61.9701 126.953Z" fill="#0F68EE"/>
<path fill-rule="evenodd" clip-rule="evenodd" d="M61.9703 120.111C60.4625 120.111 59.2329 121.34 59.2329 122.848C59.2329 124.356 60.4625 125.586 61.9703 125.586C63.4781 125.586 64.7078 124.356 64.7078 122.848C64.7078 121.34 63.4781 120.111 61.9703 120.111ZM56.498 122.848C56.498 119.83 58.9521 117.376 61.9703 117.376C64.9886 117.376 67.4426 119.83 67.4426 122.848C67.4426 125.866 64.9886 128.321 61.9703 128.321C58.9521 128.321 56.498 125.866 56.498 122.848Z" fill="#3F87F3"/>
<path fill-rule="evenodd" clip-rule="evenodd" d="M58.5518 140.415C58.5518 139.66 59.164 139.048 59.9192 139.048H144.015V141.783H59.9192C59.164 141.783 58.5518 141.17 58.5518 140.415Z" fill="#3F87F3"/>
<path d="M77.6984 167.081C79.9614 167.081 81.8032 168.923 81.8032 171.186C81.8032 173.449 79.9614 175.291 77.6984 175.291C75.4353 175.291 73.5935 173.449 73.5935 171.186C73.5935 168.923 75.4353 167.081 77.6984 167.081Z" fill="#0F68EE"/>
<path fill-rule="evenodd" clip-rule="evenodd" d="M77.6986 173.923C79.2064 173.923 80.4361 172.694 80.4361 171.186C80.4361 169.678 79.2064 168.448 77.6986 168.448C76.1908 168.448 74.9612 169.678 74.9612 171.186C74.9612 172.694 76.1908 173.923 77.6986 173.923ZM83.1709 171.186C83.1709 174.204 80.7169 176.658 77.6986 176.658C74.6804 176.658 72.2263 174.204 72.2263 171.186C72.2263 168.168 74.6804 165.714 77.6986 165.714C80.7169 165.714 83.1709 168.168 83.1709 171.186Z" fill="#3F87F3"/>
<path d="M141.965 144.523C139.702 144.523 137.86 142.681 137.86 140.418C137.86 138.155 139.702 136.313 141.965 136.313C144.228 136.313 146.07 138.155 146.07 140.418C146.07 142.681 144.228 144.523 141.965 144.523Z" fill="#0F68EE"/>
<path fill-rule="evenodd" clip-rule="evenodd" d="M141.964 137.681C140.457 137.681 139.227 138.911 139.227 140.419C139.227 141.926 140.457 143.156 141.964 143.156C143.472 143.156 144.702 141.926 144.702 140.419C144.702 138.911 143.472 137.681 141.964 137.681ZM136.492 140.419C136.492 137.4 138.946 134.946 141.964 134.946C144.983 134.946 147.437 137.4 147.437 140.419C147.437 143.437 144.983 145.891 141.964 145.891C138.946 145.891 136.492 143.437 136.492 140.419Z" fill="#3F87F3"/>
<path d="M73.8127 160.981L67.7595 128.635C67.4549 127.007 69.259 125.815 70.6368 126.734L82.9323 134.931C83.7907 135.503 84.9505 135.273 85.5248 134.416L98.6026 114.896C99.3438 113.79 100.971 113.79 101.712 114.896L114.79 134.416C115.364 135.273 116.524 135.503 117.382 134.931L129.678 126.734C131.055 125.815 132.859 127.007 132.555 128.635L126.502 160.981C126.17 162.752 124.624 164.035 122.823 164.035H77.4913C75.6899 164.035 74.1441 162.752 73.8127 160.981Z" fill="#0C54C0"/>
<circle cx="100.6" cy="104.057" r="2.65714" fill="#0C54C0"/>
<circle cx="132.486" cy="117.343" r="2.65714" fill="#0C54C0"/>
<circle cx="68.7143" cy="117.343" r="2.65714" fill="#0C54C0"/>
<path d="M73.8127 155.368L67.7595 123.022C67.4549 121.394 69.259 120.202 70.6368 121.121L82.9323 129.318C83.7907 129.89 84.9505 129.659 85.5248 128.802L98.6026 109.283C99.3438 108.177 100.971 108.177 101.712 109.283L114.79 128.802C115.364 129.659 116.524 129.89 117.382 129.318L129.678 121.121C131.055 120.202 132.859 121.394 132.555 123.022L126.502 155.368C126.17 157.138 124.624 158.422 122.823 158.422H77.4913C75.6899 158.422 74.1441 157.138 73.8127 155.368Z" fill="#FFCC28"/>
<path d="M77.2459 153.367L72.0622 127.847C71.8975 127.036 72.789 126.427 73.485 126.874L83.6533 133.411C84.3313 133.847 84.7892 134.553 84.9104 135.35L87.6667 153.463C87.8391 154.595 86.9624 155.615 85.8168 155.615H79.9966C78.6618 155.615 77.5116 154.675 77.2459 153.367Z" fill="#FFE9A6"/>
<path d="M123.536 153.367L128.73 127.8C128.893 126.996 128.016 126.386 127.319 126.819L116.726 133.394C116.01 133.839 115.532 134.581 115.423 135.416L113.064 153.502C112.917 154.622 113.789 155.615 114.919 155.615H120.786C122.12 155.615 123.271 154.675 123.536 153.367Z" fill="#E4AE02"/>
<circle cx="100.6" cy="102.285" r="2.65714" fill="#FFCC28"/>
<circle cx="132.486" cy="115.571" r="2.65714" fill="#FFCC28"/>
<circle cx="68.7143" cy="115.571" r="2.65714" fill="#FFCC28"/>
<path d="M168.886 143.106C173.365 143.106 177 146.643 177 151H136C136.385 146.176 140.53 142.816 145.583 142.816C146.906 142.816 148.164 143.071 149.313 143.545C149.735 138.756 154.01 135 158.888 135C163.767 135 167.795 138.537 168.413 143.12C168.573 143.106 168.726 143.106 168.886 143.106H168.886Z" fill="#F6F7F7"/>
<path d="M86.2414 192.257C86.2493 192.07 86.2571 191.883 86.2571 191.696C86.2571 186.055 81.6242 181.488 75.9178 181.488C75.7126 181.488 75.5153 181.488 75.3179 181.504C74.5287 175.574 69.3985 171 63.1712 171C56.9439 171 51.5059 175.862 50.9692 182.049C49.509 181.442 47.8989 181.106 46.2099 181.106C39.7616 181.106 34.4893 186.023 34 192.257H86.2414Z" fill="#F6F7F7"/>
<path d="M109.556 111L110.091 113.637C110.577 116.042 112.353 117.918 114.62 118.434L117.111 119L114.62 119.566C112.349 120.082 110.577 121.962 110.091 124.363L109.556 127L109.021 124.363C108.534 121.958 106.758 120.082 104.491 119.566L102 119L104.491 118.434C106.762 117.918 108.534 116.038 109.021 113.637L109.556 111Z" fill="white"/>
</svg>
