<svg width="240" height="280" viewBox="0 0 240 280" fill="none" xmlns="http://www.w3.org/2000/svg">
<mask id="mask0_3510_104354" style="mask-type:alpha" maskUnits="userSpaceOnUse" x="0" y="0" width="240" height="280">
<rect width="240" height="280" rx="16" fill="#DDE4F8"/>
</mask>
<g mask="url(#mask0_3510_104354)">
<rect width="240" height="280" rx="16" fill="#282A32"/>
<rect x="21.5" y="26.2646" width="249" height="227.937" rx="8.5" fill="#414451" stroke="#515565"/>
<path d="M22 34.7646C22 30.3464 25.5817 26.7646 30 26.7646H262C266.418 26.7646 270 30.3464 270 34.7646V41.7605H22V34.7646Z" fill="#515565"/>
</g>
<circle cx="52" cy="73.6475" r="16" fill="#515565"/>
<path d="M58.5778 67.454C58.6365 67.6066 58.6666 67.7688 58.6666 67.9323V78.592C58.6666 79.3284 58.0696 79.9254 57.3333 79.9254C57.1425 79.9254 56.9539 79.8844 56.7803 79.8053L53.8919 78.4885C53.6877 78.963 53.2159 79.2952 52.6666 79.2952H50.6666C49.9302 79.2952 49.3333 78.6983 49.3333 77.9619V76.4106L48.3466 75.9613L46.6666 75.9619C45.9302 75.9619 45.3333 75.3649 45.3333 74.6285V71.2952C45.3333 70.5588 45.9302 69.9619 46.6666 69.9619L48.3366 69.9613L56.8549 66.6878C57.5423 66.4236 58.3136 66.7666 58.5778 67.454ZM57.3333 67.9323L49.3333 71.0072V74.9458L57.3333 78.592V67.9323ZM50.6666 77.0186V77.9619H52.6666V77.93L50.6666 77.0186ZM47.9999 71.2952H46.6666V74.6285H47.9999V71.2952Z" fill="#E5E6E8"/>
<rect x="76" y="66.6475" width="25.2" height="14" rx="7" fill="#7A95E3"/>
<circle cx="94.2001" cy="73.6471" r="4.9" fill="#282A32"/>
<circle cx="52" cy="121.647" r="16" fill="#515565"/>
<g clip-path="url(#clip0_3510_104354)">
<path fill-rule="evenodd" clip-rule="evenodd" d="M53.3333 115.295C53.3333 114.926 53.6317 114.628 53.9999 114.628C54.3681 114.628 54.6666 114.926 54.6666 115.295V117.295C54.6666 117.372 54.6535 117.446 54.6294 117.515C54.6538 117.66 54.6666 117.809 54.6666 117.961C55.403 117.961 55.9999 118.558 55.9999 119.295H57.3333V118.295C57.3333 117.926 57.6317 117.628 57.9999 117.628C58.3681 117.628 58.6666 117.926 58.6666 118.295V119.961C58.6666 120.329 58.3681 120.628 57.9999 120.628H55.9999V121.961H57.9999C58.3681 121.961 58.6666 122.26 58.6666 122.628C58.6666 122.996 58.3681 123.295 57.9999 123.295L55.9999 123.295V123.961C55.9999 124.188 55.981 124.411 55.9446 124.628H57.9999C58.3681 124.628 58.6666 124.926 58.6666 125.295V126.961C58.6666 127.329 58.3681 127.628 57.9999 127.628C57.6317 127.628 57.3333 127.329 57.3333 126.961V125.961H55.4648C54.7732 127.157 53.4805 127.961 51.9999 127.961C50.5194 127.961 49.2267 127.157 48.535 125.961H46.6666V126.961C46.6666 127.329 46.3681 127.628 45.9999 127.628C45.6317 127.628 45.3333 127.329 45.3333 126.961V125.295C45.3333 124.926 45.6317 124.628 45.9999 124.628H48.0552C48.0189 124.411 47.9999 124.188 47.9999 123.961V123.295L45.9999 123.295C45.6317 123.295 45.3333 122.996 45.3333 122.628C45.3333 122.26 45.6317 121.961 45.9999 121.961H47.9999V120.628H45.9999C45.6317 120.628 45.3333 120.329 45.3333 119.961V118.295C45.3333 117.926 45.6317 117.628 45.9999 117.628C46.3681 117.628 46.6666 117.926 46.6666 118.295V119.295H47.9999C47.9999 118.558 48.5969 117.961 49.3333 117.961C49.3333 117.809 49.346 117.66 49.3705 117.515C49.3464 117.446 49.3333 117.372 49.3333 117.295V115.295C49.3333 114.926 49.6317 114.628 49.9999 114.628C50.3681 114.628 50.6666 114.926 50.6666 115.295V115.651C51.0588 115.424 51.5142 115.295 51.9999 115.295C52.4856 115.295 52.941 115.424 53.3333 115.651V115.295ZM51.9999 126.628C50.5272 126.628 49.3333 125.434 49.3333 123.961L49.3333 122.628L49.3333 119.295L54.6666 119.295V122.628V123.961C54.6666 125.434 53.4727 126.628 51.9999 126.628ZM51.9999 116.628C52.7363 116.628 53.3333 117.225 53.3333 117.961L50.6666 117.961C50.6666 117.225 51.2635 116.628 51.9999 116.628Z" fill="#E5E6E8"/>
</g>
<rect x="76" y="114.647" width="25.2" height="14" rx="7" fill="#7A95E3"/>
<circle cx="94.2001" cy="121.647" r="4.9" fill="#282A32"/>
<circle cx="52" cy="169.647" r="16" fill="#515565"/>
<g clip-path="url(#clip1_3510_104354)">
<path fill-rule="evenodd" clip-rule="evenodd" d="M49.3333 162.628C49.7014 162.628 49.9999 162.926 49.9999 163.295V163.961H57.317C58.0624 163.961 58.6666 164.565 58.6666 165.311V173.278C58.6666 174.024 58.0624 174.628 57.317 174.628H46.6828C45.9375 174.628 45.3333 174.024 45.3333 173.278V165.311C45.3333 164.565 45.9375 163.961 46.6828 163.961H48.6666V163.295C48.6666 162.926 48.9651 162.628 49.3333 162.628ZM57.3333 165.295H46.6666V173.295H57.3333V165.295ZM55.2593 166.452C55.3072 166.512 55.3333 166.587 55.3333 166.663V169.295C55.3333 171.136 53.8409 172.628 51.9999 172.628C50.159 172.628 48.6666 171.136 48.6666 169.295V167.295C48.6666 166.926 48.9651 166.628 49.3333 166.628C49.6751 166.628 49.9569 166.885 49.9954 167.217L49.9999 167.295V169.295C49.9999 170.399 50.8953 171.295 51.9999 171.295C53.1045 171.295 53.9999 170.399 53.9999 169.295L53.9993 168.628H52.9618C52.7754 168.628 52.6244 168.477 52.6244 168.291C52.6244 168.188 52.671 168.091 52.751 168.027L54.7851 166.4C54.9306 166.283 55.1429 166.307 55.2593 166.452Z" fill="#B9BBC1"/>
</g>
<rect x="76" y="162.647" width="25.2" height="14" rx="7" fill="#9799A3"/>
<circle cx="83.9" cy="169.547" r="4.9" fill="#282A32"/>
<g filter="url(#filter0_d_3510_104354)">
<path fill-rule="evenodd" clip-rule="evenodd" d="M100.141 177.352C100.14 176.784 99.6927 176.324 99.1409 176.324C98.5886 176.324 98.1409 176.785 98.1409 177.353V178.383L98.1409 179.155C98.1409 179.297 98.0289 179.412 97.8909 179.412C97.7528 179.412 97.6409 179.297 97.6409 179.155V178.383H97.6408V173.235C97.6408 172.667 97.1931 172.206 96.6408 172.206C96.0885 172.206 95.6408 172.667 95.6408 173.235V178.383V180.441V181.733L94.8748 180.312C94.6068 179.815 93.9981 179.636 93.5152 179.911C93.0323 180.187 92.8581 180.814 93.126 181.311L95.89 186.438C96.183 186.982 96.7222 187.296 97.2849 187.315C97.6921 187.527 98.1529 187.647 98.6408 187.647H102.141C103.798 187.647 105.141 186.265 105.141 184.559V180.453L105.141 180.441V178.383C105.141 177.814 104.693 177.353 104.141 177.353C103.589 177.353 103.141 177.814 103.141 178.383L103.141 179.155C103.141 179.297 103.029 179.412 102.891 179.412C102.753 179.412 102.641 179.297 102.641 179.155L102.641 178.383V177.353L102.641 177.352C102.64 176.784 102.193 176.324 101.641 176.324C101.089 176.324 100.641 176.785 100.641 177.353V178.383L100.641 179.155C100.641 179.297 100.529 179.412 100.391 179.412C100.253 179.412 100.141 179.297 100.141 179.155V177.352Z" fill="url(#paint0_linear_3510_104354)"/>
</g>
<path fill-rule="evenodd" clip-rule="evenodd" d="M100.641 177.353C100.641 177.353 100.641 177.352 100.641 177.352C100.641 177.352 100.641 177.352 100.641 177.352C100.641 177.039 100.777 176.759 100.991 176.571C101.166 176.417 101.393 176.324 101.641 176.324C102.097 176.324 102.482 176.638 102.602 177.068C102.627 177.158 102.641 177.253 102.641 177.352V179.155C102.641 179.297 102.753 179.412 102.891 179.412C103.029 179.412 103.141 179.297 103.141 179.155L103.141 178.383C103.141 178.002 103.342 177.669 103.641 177.491C103.788 177.403 103.959 177.353 104.141 177.353C104.693 177.353 105.141 177.814 105.141 178.383V180.441L105.141 180.453V184.559C105.141 186.265 103.798 187.647 102.141 187.647H98.6407C98.1528 187.647 97.6921 187.527 97.2849 187.315C96.7222 187.296 96.183 186.982 95.8899 186.438L93.126 181.311C92.858 180.814 93.0322 180.187 93.5151 179.912C93.8867 179.699 94.3327 179.757 94.6407 180.021C94.733 180.1 94.813 180.198 94.8747 180.312L95.6407 181.733V173.236C95.6407 172.667 96.0885 172.206 96.6407 172.206C97.193 172.206 97.6407 172.667 97.6407 173.236V178.383L97.6408 179.155C97.6408 179.297 97.7527 179.412 97.8908 179.412C98.0289 179.412 98.1408 179.297 98.1408 179.155L98.1408 177.353C98.1408 176.972 98.3419 176.64 98.6407 176.462C98.7878 176.374 98.9586 176.324 99.1408 176.324C99.3888 176.324 99.6156 176.417 99.7904 176.571C100.005 176.759 100.14 177.039 100.141 177.352V179.155C100.141 179.297 100.253 179.412 100.391 179.412C100.529 179.412 100.641 179.297 100.641 179.155L100.641 177.353ZM100.391 175.746C100.733 175.463 101.168 175.294 101.641 175.294C102.432 175.294 103.116 175.767 103.44 176.454C103.658 176.37 103.894 176.324 104.141 176.324C105.245 176.324 106.141 177.246 106.141 178.383V180.447L106.141 180.456V184.559C106.141 186.833 104.35 188.677 102.141 188.677H98.6407C98.0664 188.677 97.5181 188.552 97.0222 188.325C96.2073 188.225 95.4459 187.736 95.0155 186.938L92.2516 181.811C91.7156 180.816 92.0641 179.563 93.0299 179.011C93.5425 178.719 94.1259 178.682 94.6407 178.861V173.236C94.6407 172.099 95.5362 171.177 96.6407 171.177C97.7453 171.177 98.6407 172.099 98.6407 173.236V175.359C98.8006 175.317 98.9681 175.294 99.1408 175.294C99.6138 175.294 100.048 175.463 100.391 175.746Z" fill="#1C1B1F"/>
<path d="M142.393 70.0972L143.502 65.8828H144.672L144.256 67.9956L143.159 71.8828H142.221L142.393 70.0972ZM141.955 65.8828L142.643 70.064L142.72 71.8828H141.584L140.164 65.8828H141.955ZM145.659 69.9752L146.353 65.8828H148.144L146.735 71.8828H145.598L145.659 69.9752ZM144.805 65.8828L145.926 70.0861L146.098 71.8828H145.149L144.073 68.0067L143.674 65.8828H144.805Z" fill="#747784"/>
<path d="M150.739 70.0972L151.848 65.8828H153.018L152.603 67.9956L151.505 71.8828H150.567L150.739 70.0972ZM150.301 65.8828L150.989 70.064L151.066 71.8828H149.93L148.51 65.8828H150.301ZM154.005 69.9752L154.699 65.8828H156.49L155.081 71.8828H153.944L154.005 69.9752ZM153.151 65.8828L154.272 70.0861L154.444 71.8828H153.495L152.42 68.0067L152.02 65.8828H153.151Z" fill="#747784"/>
<path d="M159.085 70.0972L160.194 65.8828H161.364L160.949 67.9956L159.851 71.8828H158.913L159.085 70.0972ZM158.647 65.8828L159.335 70.064L159.412 71.8828H158.276L156.856 65.8828H158.647ZM162.351 69.9752L163.045 65.8828H164.836L163.427 71.8828H162.29L162.351 69.9752ZM161.498 65.8828L162.618 70.0861L162.79 71.8828H161.841L160.766 68.0067L160.366 65.8828H161.498Z" fill="#747784"/>
<rect x="167.836" y="65.8828" width="50" height="6" rx="3" fill="#747784"/>
<path fill-rule="evenodd" clip-rule="evenodd" d="M177.2 106.883V109.089C177.731 108.791 178.341 108.61 179 108.61C179.549 108.61 180.064 108.736 180.528 108.95L180.8 109.089V106.883H182.6L182.598 112.063L186.2 112.065V110.337H188L188 113.792H184.4V115.519H188V117.246H184.4V118.974H188L188 122.428H186.2V120.701H184.4L184.391 121.005C184.227 123.726 181.876 125.883 179 125.883C176.124 125.883 173.773 123.726 173.609 121.005L173.6 120.701H171.8V122.428H170V118.974L173.598 118.972V117.245L170 117.246V115.519L173.598 115.517V113.79L170 113.792V110.337H171.8V112.065L175.398 112.063L175.4 106.883H177.2Z" fill="#7A95E3"/>
<circle cx="179" cy="115.883" r="22" stroke="#7A95E3" stroke-width="8"/>
<rect x="136" y="159.883" width="6" height="6" rx="3" fill="#515565"/>
<rect x="146" y="159.883" width="76" height="6" rx="3" fill="#515565"/>
<rect x="136" y="177.883" width="6" height="6" rx="3" fill="#515565"/>
<rect x="146" y="177.883" width="76" height="6" rx="3" fill="#515565"/>
<rect x="136" y="195.883" width="6" height="6" rx="3" fill="#515565"/>
<rect x="146" y="195.883" width="76" height="6" rx="3" fill="#515565"/>
<rect x="136" y="213.883" width="6" height="6" rx="3" fill="#515565"/>
<rect x="146" y="213.883" width="76" height="6" rx="3" fill="#515565"/>
<rect x="118" y="47.3525" width="1" height="191.471" fill="#515565"/>
<rect x="0.5" y="0.5" width="239" height="279" rx="15.5" stroke="#282A32"/>
<defs>
<filter id="filter0_d_3510_104354" x="92.0002" y="172.206" width="14.1406" height="17.4414" filterUnits="userSpaceOnUse" color-interpolation-filters="sRGB">
<feFlood flood-opacity="0" result="BackgroundImageFix"/>
<feColorMatrix in="SourceAlpha" type="matrix" values="0 0 0 0 0 0 0 0 0 0 0 0 0 0 0 0 0 0 127 0" result="hardAlpha"/>
<feOffset dy="1"/>
<feGaussianBlur stdDeviation="0.5"/>
<feComposite in2="hardAlpha" operator="out"/>
<feColorMatrix type="matrix" values="0 0 0 0 0 0 0 0 0 0 0 0 0 0 0 0 0 0 0.1 0"/>
<feBlend mode="normal" in2="BackgroundImageFix" result="effect1_dropShadow_3510_104354"/>
<feBlend mode="normal" in="SourceGraphic" in2="effect1_dropShadow_3510_104354" result="shape"/>
</filter>
<linearGradient id="paint0_linear_3510_104354" x1="99.0706" y1="172.206" x2="99.0706" y2="187.647" gradientUnits="userSpaceOnUse">
<stop offset="0.353422" stop-color="white"/>
<stop offset="1" stop-color="#E7E7E7"/>
</linearGradient>
<clipPath id="clip0_3510_104354">
<rect width="16" height="16" fill="white" transform="translate(44 113.295)"/>
</clipPath>
<clipPath id="clip1_3510_104354">
<rect width="16" height="16" fill="white" transform="translate(44 161.295)"/>
</clipPath>
</defs>
</svg>
